<svg width="95" height="97" viewBox="0 0 95 97" fill="none" xmlns="http://www.w3.org/2000/svg">
<path d="M56.3595 61.5018C60.3768 60.4716 63.8664 58.2058 66.4514 54.9492C69.6208 50.9564 71.0259 45.9704 70.4078 40.9096C69.7898 35.8499 67.2232 31.3451 63.1841 28.2331C59.2708 25.2161 54.3923 23.8748 49.4472 24.4565C44.5024 25.0381 40.0678 27.4746 36.9606 31.3169C34.2968 34.6109 32.8441 38.5841 32.7592 42.8071C32.6213 49.6626 30.2589 56.3188 26.1069 61.5496L21.5638 67.273C19.5486 69.8118 19.9745 73.5167 22.5133 75.5319L26.7959 78.9313C29.3347 80.9465 33.0397 80.5204 35.0548 77.9818L39.5976 72.2587C43.7956 66.9702 49.5793 63.2404 56.3595 61.5018V61.5018ZM35.1813 42.8559C35.2553 39.1756 36.5219 35.7123 38.8443 32.8404C44.4236 25.9411 54.6788 24.7349 61.7048 30.1518C65.2275 32.8717 67.4641 36.7927 68.0028 41.2035C68.5417 45.6155 67.3168 49.9623 64.5538 53.4431C62.3003 56.2821 59.2586 58.2573 55.7576 59.1551C48.6135 60.9872 42.4716 64.8651 37.9668 70.3825L28.2848 62.6972C32.5904 57.11 35.0361 50.0828 35.1813 42.8559V42.8559ZM23.9717 68.1362L24.5814 67.3681L33.3957 76.1754L33.1574 76.4757C33.0318 76.6338 32.8931 76.7748 32.7474 76.9048L23.9717 68.1362ZM26.0975 65.4582L26.7812 64.5968L36.4773 72.2933L34.9118 74.2654L26.0975 65.4582V65.4582ZM24.0194 73.6345C23.0002 72.8254 22.5614 71.5533 22.7622 70.3523L30.1873 77.7715C29.5215 77.7216 28.8634 77.4793 28.3023 77.0339L24.0195 73.6343L24.0194 73.6345Z" fill="black"/>
<path d="M41.1365 37.1814C41.4566 36.6261 41.8262 36.088 42.2351 35.5824C42.6558 35.0623 42.5752 34.2996 42.055 33.8789C41.5382 33.4612 40.7722 33.5388 40.3514 34.059C39.8629 34.6631 39.4208 35.3065 39.0375 35.9716C38.7339 36.4981 38.8703 37.1576 39.3326 37.5245C39.3791 37.5615 39.429 37.5955 39.4821 37.6261C40.0617 37.9599 40.8023 37.761 41.1365 37.1814Z" fill="black"/>
<path d="M35.2808 56.0247C35.3789 56.1027 35.4911 56.1665 35.6152 56.2124C36.2429 56.4438 36.9394 56.1226 37.1707 55.495C38.6574 51.4627 39.455 47.2397 39.5413 42.9433C39.5556 42.2332 39.6312 41.5246 39.7662 40.8373C39.8951 40.1808 39.4673 39.5443 38.8108 39.4153C38.1544 39.2865 37.5177 39.7143 37.3888 40.3708C37.227 41.1955 37.1362 42.0445 37.1192 42.8947C37.0383 46.9209 36.2909 50.8783 34.8977 54.6569C34.712 55.1605 34.882 55.7082 35.2808 56.0247Z" fill="black"/>
<path d="M59.0418 54.3633C58.7252 53.774 57.9906 53.553 57.4014 53.8698C56.5467 54.3292 55.6293 54.6862 54.6745 54.931C54.0265 55.0971 53.6359 55.7573 53.802 56.4053C53.8702 56.6714 54.0218 56.894 54.2215 57.0525C54.5083 57.2802 54.8944 57.3757 55.2764 57.2776C56.4205 56.9842 57.5213 56.5556 58.5482 56.0038C59.1376 55.6871 59.3587 54.9526 59.0418 54.3633V54.3633Z" fill="black"/>
<path d="M59.1818 33.7146C64.4129 37.8669 65.2905 45.5009 61.1382 50.7321C60.9021 51.0295 60.6506 51.3183 60.3906 51.5905C59.9285 52.0744 59.9461 52.841 60.4299 53.3032C60.4572 53.3292 60.4853 53.3538 60.5144 53.3769C60.9993 53.7618 61.7065 53.7204 62.1425 53.2639C62.4532 52.9383 62.7539 52.5934 63.0357 52.2383C68.0186 45.9609 66.9655 36.7999 60.688 31.817C60.1641 31.4011 59.4021 31.4887 58.9862 32.0127C58.5702 32.5367 58.6578 33.2987 59.1818 33.7146V33.7146Z" fill="black"/>
<path d="M64.6978 26.7648C65.2218 27.1807 65.9838 27.0931 66.3997 26.5691L70.6171 21.256C71.033 20.7321 70.9454 19.9701 70.4214 19.5542C69.8975 19.1382 69.1355 19.2259 68.7196 19.7498L64.5022 25.0629C64.0862 25.5869 64.1738 26.3489 64.6978 26.7648Z" fill="black"/>
<path d="M53.6116 21.0205C53.5457 21.4646 53.7294 21.8878 54.0573 22.1481C54.2182 22.2758 54.414 22.3643 54.6318 22.3966C55.2936 22.4948 55.9098 22.0381 56.008 21.3764L57.0037 14.669C57.1019 14.0071 56.6452 13.3911 55.9835 13.2929C55.3217 13.1947 54.7055 13.6515 54.6073 14.3132L53.6116 21.0205Z" fill="black"/>
<path d="M63.3737 70.0716L60.8818 63.7653C60.636 63.1429 59.9322 62.8379 59.31 63.0839C58.6879 63.3297 58.3827 64.0334 58.6287 64.6556L61.1206 70.962C61.2015 71.1668 61.3321 71.3372 61.4931 71.4651C61.821 71.7253 62.2751 71.8082 62.6924 71.6433C63.3145 71.3975 63.6195 70.6938 63.3737 70.0716V70.0716Z" fill="black"/>
<path d="M39.6663 16.6623L42.1582 22.9687C42.2391 23.1735 42.3697 23.344 42.5307 23.4718C42.8586 23.7321 43.3127 23.8149 43.73 23.65C44.3521 23.4042 44.6573 22.7006 44.4113 22.0783L41.9194 15.7719C41.6737 15.1496 40.9699 14.8446 40.3476 15.0906C39.7255 15.3364 39.4204 16.0399 39.6663 16.6623V16.6623Z" fill="black"/>
<path d="M75.1368 60.5669L69.8238 56.3495C69.2998 55.9336 68.5378 56.0212 68.1219 56.5452C67.706 57.0692 67.7936 57.8312 68.3176 58.2471L73.6306 62.4644C74.1546 62.8804 74.9166 62.7928 75.3325 62.2688C75.7484 61.7448 75.6609 60.9829 75.1368 60.5669Z" fill="black"/>
<path d="M34.9175 30.1885C35.3334 29.6645 35.2458 28.9026 34.7218 28.4866L29.4087 24.2692C28.8848 23.8533 28.1228 23.9409 27.7069 24.4649C27.2909 24.9889 27.3785 25.7509 27.9025 26.1668L33.2156 30.3842C33.7397 30.8002 34.5016 30.7125 34.9175 30.1885Z" fill="black"/>
<path d="M72.9362 47.6066C73.0971 47.7343 73.2928 47.8229 73.5107 47.8552L80.218 48.8509C80.8797 48.9491 81.4959 48.4924 81.5941 47.8307C81.6923 47.1689 81.2354 46.5527 80.5738 46.4546L73.8665 45.4588C73.2048 45.3606 72.5886 45.8173 72.4904 46.4791C72.4245 46.9229 72.6084 47.3464 72.9362 47.6066Z" fill="black"/>
<path d="M29.5294 38.8788L22.8221 37.883C22.1604 37.7848 21.5442 38.2415 21.446 38.9033C21.3801 39.3471 21.5638 39.7705 21.8917 40.0308C22.0526 40.1585 22.2484 40.2471 22.4662 40.2794L29.1736 41.2752C29.8353 41.3734 30.4515 40.9166 30.5497 40.2549C30.6481 39.5931 30.1908 38.9768 29.5294 38.8788V38.8788Z" fill="black"/>
<path d="M71.2369 35.5771C71.3178 35.782 71.4484 35.9524 71.6094 36.0802C71.9373 36.3405 72.3914 36.4233 72.8087 36.2585L79.115 33.7665C79.7372 33.5207 80.0422 32.8169 79.7964 32.1948C79.5507 31.5727 78.8469 31.2675 78.2246 31.5134L71.9183 34.0053C71.2961 34.2511 70.9911 34.9549 71.2369 35.5771V35.5771Z" fill="black"/>
</svg>
